<?xml version="1.0" encoding="utf-8"?>
<!-- Generator: Adobe Illustrator 16.0.3, SVG Export Plug-In . SVG Version: 6.00 Build 0)  -->
<!DOCTYPE svg PUBLIC "-//W3C//DTD SVG 1.1//EN" "http://www.w3.org/Graphics/SVG/1.1/DTD/svg11.dtd">
<svg version="1.1" id="Layer_1" xmlns="http://www.w3.org/2000/svg" xmlns:xlink="http://www.w3.org/1999/xlink" x="0px" y="0px"
	 width="59px" height="57.875px" viewBox="130.5 2.875 59 57.875" enable-background="new 130.5 2.875 59 57.875"
	 xml:space="preserve">
<path fill="#ED7924" d="M150,59.875h-12c-3.313,0-6-2.688-6-6v-44c0-3.313,2.688-6,6-6h12c3.313,0,6,2.688,6,6v44
	C156,57.188,153.313,59.875,150,59.875z M188,53.875v-44c0-3.313-2.688-6-6-6h-12c-3.313,0-6,2.688-6,6v44c0,3.313,2.688,6,6,6h12
	C185.313,59.875,188,57.188,188,53.875z"/>
</svg>
